<svg width="16" height="16" viewBox="0 0 16 16" fill="none" xmlns="http://www.w3.org/2000/svg">
<path d="M6.00002 13.5C5.90113 13.5 5.80445 13.4707 5.72222 13.4158C5.64 13.3608 5.57591 13.2827 5.53806 13.1914C5.50022 13.1 5.49031 12.9995 5.50961 12.9025C5.5289 12.8055 5.57653 12.7164 5.64646 12.6465L10.2929 8.00001L5.64646 3.35358C5.55269 3.25981 5.50001 3.13262 5.50001 3.00001C5.50001 2.8674 5.55269 2.74022 5.64646 2.64645C5.74023 2.55268 5.86741 2.5 6.00002 2.5C6.13263 2.5 6.25981 2.55268 6.35358 2.64645L11.3536 7.64645C11.4 7.69288 11.4368 7.748 11.462 7.80867C11.4871 7.86933 11.5 7.93435 11.5 8.00001C11.5 8.06568 11.4871 8.1307 11.462 8.19136C11.4368 8.25203 11.4 8.30715 11.3536 8.35358L6.35358 13.3536C6.3072 13.4001 6.25209 13.437 6.19141 13.4621C6.13074 13.4872 6.06569 13.5001 6.00002 13.5Z" fill="#083D62"/>
</svg>
