<svg width="16" height="16" viewBox="0 0 16 16" fill="none" xmlns="http://www.w3.org/2000/svg">
<path d="M12.5 14H9.40875C9.92884 13.5364 10.4193 13.0406 10.8773 12.5156C12.5931 10.5424 13.5 8.46231 13.5 6.5C13.5 5.04131 12.9205 3.64236 11.8891 2.61091C10.8576 1.57946 9.45869 1 8 1C6.54131 1 5.14236 1.57946 4.11091 2.61091C3.07946 3.64236 2.5 5.04131 2.5 6.5C2.5 8.46225 3.40687 10.5424 5.12269 12.5156C5.58068 13.0406 6.07116 13.5364 6.59125 14H3.5C3.36739 14 3.24021 14.0527 3.14645 14.1464C3.05268 14.2402 3 14.3674 3 14.5C3 14.6326 3.05268 14.7598 3.14645 14.8536C3.24021 14.9473 3.36739 15 3.5 15H12.5C12.6326 15 12.7598 14.9473 12.8536 14.8536C12.9473 14.7598 13 14.6326 13 14.5C13 14.3674 12.9473 14.2402 12.8536 14.1464C12.7598 14.0527 12.6326 14 12.5 14ZM3.5 6.5C3.5 5.30653 3.97411 4.16193 4.81802 3.31802C5.66193 2.47411 6.80653 2 8 2C9.19347 2 10.3381 2.47411 11.182 3.31802C12.0259 4.16193 12.5 5.30653 12.5 6.5C12.5 10.0771 9.03312 13.0634 8 13.8737C6.96669 13.0633 3.5 10.0771 3.5 6.5ZM10.5 6.5C10.5 6.00555 10.3534 5.5222 10.0787 5.11107C9.80397 4.69995 9.41352 4.37952 8.95671 4.1903C8.49989 4.00108 7.99723 3.95157 7.51227 4.04804C7.02732 4.1445 6.58186 4.3826 6.23223 4.73223C5.8826 5.08186 5.6445 5.52732 5.54804 6.01227C5.45157 6.49723 5.50108 6.99989 5.6903 7.45671C5.87952 7.91352 6.19995 8.30397 6.61107 8.57867C7.0222 8.85338 7.50555 9 8 9C8.66281 8.99924 9.29825 8.7356 9.76693 8.26693C10.2356 7.79825 10.4992 7.16281 10.5 6.5ZM6.5 6.5C6.5 6.20333 6.58797 5.91332 6.7528 5.66664C6.91762 5.41997 7.15189 5.22771 7.42597 5.11418C7.70006 5.00065 8.00166 4.97094 8.29264 5.02882C8.58361 5.0867 8.85088 5.22956 9.06066 5.43934C9.27044 5.64912 9.4133 5.91639 9.47118 6.20736C9.52906 6.49834 9.49935 6.79994 9.38582 7.07403C9.27229 7.34811 9.08003 7.58238 8.83335 7.7472C8.58668 7.91203 8.29667 8 8 8C7.60231 7.99955 7.22104 7.84137 6.93983 7.56017C6.65863 7.27896 6.50045 6.89769 6.5 6.5Z" fill="black"/>
</svg>
